<?xml version="1.0" encoding="utf-8"?>
<!-- Generator: Adobe Illustrator 30.2.1, SVG Export Plug-In . SVG Version: 9.03 Build 0)  -->
<svg version="1.0" xmlns="http://www.w3.org/2000/svg" xmlns:xlink="http://www.w3.org/1999/xlink" x="0px" y="0px"
	 viewBox="0 0 1135 420" style="enable-background:new 0 0 1135 420;" xml:space="preserve">
<style type="text/css">
	.st0{opacity:0.8;fill:#C4AB7A;}
	.st1{opacity:0.8;fill:#A8905A;}
	.st2{fill:#C4AB7A;}
	.st3{fill:none;stroke:#000000;stroke-width:0.5;stroke-linecap:round;stroke-miterlimit:10;}
	.st4{fill:none;stroke:#000000;stroke-width:0.5;stroke-linecap:round;stroke-miterlimit:10;stroke-dasharray:4.0904,5.113;}
	.st5{fill:none;stroke:#000000;stroke-width:0.5;stroke-linecap:round;stroke-miterlimit:10;stroke-dasharray:4.0157,5.0196;}
	.st6{fill:none;stroke:#000000;stroke-width:0.5;stroke-linecap:round;stroke-miterlimit:10;stroke-dasharray:3.993,4.9913;}
	.st7{fill:none;stroke:#000000;stroke-width:0.5;stroke-linecap:round;stroke-miterlimit:10;stroke-dasharray:4.0581,5.0726;}
	.st8{fill:none;stroke:#000000;stroke-width:0.5;stroke-linecap:round;stroke-miterlimit:10;stroke-dasharray:4,5;}
	.st9{fill:none;stroke:#000000;stroke-width:0.75;stroke-miterlimit:10;}
	.st10{fill:none;stroke:#000000;stroke-width:0.5;stroke-miterlimit:10;}
</style>
<g id="A-L01" class="apt-zone" data-apt="A-L01" role="button" tabindex="0" aria-label="A-L01 lakás">
	<polygon class="st0" points="574.83,371.48 199.17,371.48 306.07,310.04 306.07,246.42 280.37,246.53 280.37,234.26 285.7,232.3 
		574.83,232.3 	"/>
</g>
<g id="A-L02" class="apt-zone" data-apt="A-L02" role="button" tabindex="0" aria-label="A-L02 lakás">
	<polygon class="st0" points="574.83,371.48 912.43,371.48 912.43,346.41 877.13,323.94 916.43,324.45 830.15,281.08 830.15,246.53 
		902.93,246.53 902.93,234.26 897.06,232.3 574.83,232.3 	"/>
</g>
<g id="A-L03" class="apt-zone" data-apt="A-L03" role="button" tabindex="0" aria-label="A-L03 lakás">
	<polygon class="st1" points="552.72,232.3 285.7,232.3 285.7,222.02 332.75,213.28 332.75,147.96 259.27,142.87 259.27,131.68 
		552.72,131.68 	"/>
</g>
<g id="A-L04" class="apt-zone" data-apt="A-L04" role="button" tabindex="0" aria-label="A-L04 lakás">
	<polygon class="st1" points="552.72,232.3 897.52,232.3 897.52,222.02 768.47,199.95 768.47,149.3 835.42,142.87 835.42,131.68 
		768.47,131.68 552.72,131.68 	"/>
</g>
<g id="A-Penthouse" class="apt-zone" data-apt="A-Penthouse" role="button" tabindex="0" aria-label="A-Penthouse lakás">
	<polygon class="st2" points="830.15,131.68 263.96,131.68 263.96,120.82 398.69,120.82 398.69,72.67 366.8,56.46 366.8,45.44 
		768.2,45.44 768.2,56.46 710.35,89.16 710.35,120.82 830.15,120.82 	"/>
</g>
<g id="Korvonalak" class="apt-outlines" aria-hidden="true">
	<g id="keresővonalak">
		<g>
			<g>
				<line class="st3" x1="369.47" y1="57.88" x2="367.69" y2="56.98"/>
				<line class="st4" x1="363.12" y1="54.67" x2="250.44" y2="-2.36"/>
			</g>
		</g>
		<g>
			<g>
				<line class="st3" x1="366.8" y1="45.44" x2="365.04" y2="44.49"/>
				<line class="st5" x1="360.62" y1="42.11" x2="251.45" y2="-16.67"/>
			</g>
		</g>
		<g>
			<g>
				<line class="st3" x1="740.57" y1="71.92" x2="742.32" y2="70.95"/>
				<line class="st6" x1="746.67" y1="68.51" x2="885.66" y2="-9.17"/>
			</g>
		</g>
		<g>
			<g>
				<line class="st3" x1="768.13" y1="45.31" x2="769.86" y2="44.31"/>
				<line class="st7" x1="774.25" y1="41.77" x2="882.76" y2="-20.88"/>
			</g>
		</g>
		<line class="st8" x1="213.86" y1="45.44" x2="897.06" y2="45.44"/>
		<line class="st8" x1="213.86" y1="56.46" x2="897.06" y2="56.46"/>
		<line class="st8" x1="213.86" y1="142.87" x2="897.06" y2="142.87"/>
		<line class="st8" x1="213.86" y1="131.68" x2="897.06" y2="131.68"/>
		<line class="st8" x1="213.86" y1="120.9" x2="897.06" y2="120.9"/>
		<line class="st8" x1="213.86" y1="92.46" x2="897.06" y2="92.46"/>
		<line class="st8" x1="162.22" y1="246.42" x2="948.7" y2="246.42"/>
		<line class="st8" x1="162.22" y1="315.74" x2="948.7" y2="315.74"/>
		<line class="st8" x1="162.22" y1="232.3" x2="948.7" y2="232.3"/>
		<line class="st8" x1="162.22" y1="234.26" x2="948.7" y2="234.26"/>
		<line class="st8" x1="162.22" y1="222.02" x2="948.7" y2="222.02"/>
		<line class="st8" x1="162.22" y1="193.66" x2="948.7" y2="193.66"/>
		<line class="st8" x1="360.41" y1="120.82" x2="203.24" y2="74.66"/>
		<line class="st8" x1="332.75" y1="213.28" x2="192.6" y2="238.55"/>
		<line class="st8" x1="281.79" y1="246.52" x2="193.99" y2="270.52"/>
		<line class="st8" x1="847.28" y1="213.28" x2="987.43" y2="238.55"/>
		<line class="st8" x1="902.91" y1="246.49" x2="990.84" y2="270.52"/>
		<line class="st8" x1="830.15" y1="262.28" x2="954.35" y2="305.67"/>
		<line class="st8" x1="830.15" y1="281.08" x2="957.08" y2="345.15"/>
	</g>
	<g id="alap">
		<polygon class="st9" points="830.15,315.74 725.93,315.74 719.38,298.98 574.9,298.59 572.12,313 461.9,313 460.6,315.58 
			306.45,315.35 306.45,246.42 830.15,246.42 		"/>
		<rect x="280.37" y="234.26" class="st9" width="622.56" height="12.16"/>
		<rect x="285.7" y="222.02" class="st9" width="611.37" height="10.28"/>
		<polygon class="st9" points="768.2,218.65 552.72,218.65 552.71,213.28 332.75,213.28 332.75,142.87 768.2,142.87 		"/>
		<rect x="259.27" y="131.68" class="st9" width="576.15" height="11.19"/>
		<rect x="263.96" y="120.82" class="st9" width="566.18" height="10.86"/>
		<polygon class="st9" points="710.35,120.82 398.69,120.82 398.69,64.11 597.59,64.11 597.59,69.82 710.35,69.7 		"/>
		<rect x="366.8" y="45.44" class="st9" width="401.41" height="11.02"/>
		<line class="st9" x1="398.69" y1="72.67" x2="366.8" y2="56.46"/>
		<line class="st9" x1="710.35" y1="89.16" x2="768.2" y2="56.46"/>
		<line class="st9" x1="768.2" y1="149.3" x2="835.42" y2="142.87"/>
		<line class="st9" x1="332.75" y1="147.96" x2="259.27" y2="142.87"/>
		<line class="st9" x1="285.7" y1="222.02" x2="332.75" y2="213.28"/>
		<line class="st9" x1="897.06" y1="222.02" x2="768.2" y2="199.95"/>
		<line class="st9" x1="280.37" y1="234.26" x2="285.7" y2="232.3"/>
		<line class="st9" x1="902.93" y1="234.26" x2="897.06" y2="232.3"/>
		<line class="st9" x1="332.75" y1="144.55" x2="552.72" y2="144.55"/>
		<line class="st9" x1="725.93" y1="315.74" x2="725.93" y2="246.42"/>
		<line class="st9" x1="460.6" y1="315.58" x2="460.6" y2="246.42"/>
	</g>
	<g id="ablak">
		<rect x="404.6" y="70.6" class="st10" width="87.78" height="50.22"/>
		<rect x="398.69" y="64.11" class="st10" width="93.69" height="56.71"/>
		<rect x="407.25" y="73.17" class="st10" width="55" height="47.65"/>
		<rect x="433.7" y="73.17" class="st10" width="1.69" height="47.65"/>
		<rect x="468.4" y="74.66" class="st10" width="21.34" height="46.16"/>
		<rect x="464.84" y="72.67" class="st10" width="27.54" height="48.15"/>
		<rect x="362.61" y="152.64" class="st10" width="190.12" height="60.64"/>
		<rect x="366.8" y="154.72" class="st10" width="58.56" height="58.56"/>
		
			<rect x="519.37" y="154.72" transform="matrix(-1 -1.224647e-16 1.224647e-16 -1 1072.0975 367.9964)" class="st10" width="33.35" height="58.56"/>
		<rect x="462.24" y="154.72" class="st10" width="53.33" height="58.56"/>
		
			<rect x="432.23" y="155.95" transform="matrix(-1 -1.224647e-16 1.224647e-16 -1 889.8904 369.2269)" class="st10" width="25.44" height="57.33"/>
		
			<rect x="428.88" y="152.64" transform="matrix(-1 -1.224647e-16 1.224647e-16 -1 891.1232 365.9231)" class="st10" width="33.36" height="60.64"/>
		<rect x="362.61" y="144.55" class="st10" width="190.12" height="68.73"/>
		<rect x="328.97" y="246.42" class="st10" width="69.32" height="69.32"/>
		<rect x="331.95" y="249.4" class="st10" width="40.36" height="66.34"/>
		<rect x="375.05" y="249.4" class="st10" width="23.24" height="66.34"/>
		<rect x="461.9" y="246.42" class="st10" width="110.22" height="66.58"/>
		<rect x="499.11" y="249.4" class="st10" width="73.01" height="63.61"/>
		
			<rect x="466.2" y="250.98" transform="matrix(-1 -1.224647e-16 1.224647e-16 -1 960.3098 563.9786)" class="st10" width="27.91" height="62.03"/>
		<rect x="697.87" y="246.42" class="st10" width="21.51" height="52.26"/>
		
			<rect x="667.69" y="246.42" transform="matrix(-1 -1.224647e-16 1.224647e-16 -1 1358.8629 545.1028)" class="st10" width="23.48" height="52.26"/>
		<rect x="639.46" y="246.42" class="st10" width="23.95" height="52.26"/>
		
			<rect x="577.38" y="246.42" transform="matrix(-1 -1.224647e-16 1.224647e-16 -1 1211.594 545.1028)" class="st10" width="56.84" height="52.26"/>
		<rect x="619.27" y="150.73" class="st10" width="113.1" height="67.92"/>
		<rect x="620.72" y="153.09" class="st10" width="64.27" height="65.56"/>
		
			<rect x="687.95" y="153.09" transform="matrix(-1 -1.224647e-16 1.224647e-16 -1 1418.3104 371.7411)" class="st10" width="42.42" height="65.56"/>
		<rect x="619.27" y="142.87" class="st10" width="113.1" height="75.78"/>
		<rect x="558.7" y="70.6" class="st10" width="26.06" height="50.22"/>
		<rect x="558.7" y="64.11" class="st10" width="26.06" height="56.71"/>
		<rect x="560.91" y="73.04" class="st10" width="22.07" height="47.78"/>
		<rect x="597.9" y="76.72" class="st10" width="84.03" height="44.11"/>
		<rect x="597.9" y="69.78" class="st10" width="84.03" height="51.04"/>
		<rect x="656.85" y="80.27" class="st10" width="22.3" height="40.55"/>
		<rect x="655.09" y="78.79" class="st10" width="26.83" height="42.04"/>
		
			<rect x="597.9" y="78.79" transform="matrix(-1 -1.224647e-16 1.224647e-16 -1 1251.0466 199.6057)" class="st10" width="55.25" height="42.04"/>
	</g>
	<g id="Korlát">
		<g>
			<rect x="265.87" y="92.46" class="st10" width="564.28" height="28.36"/>
			<line class="st10" x1="782.13" y1="92.46" x2="782.13" y2="120.82"/>
			<line class="st10" x1="735.27" y1="92.46" x2="735.27" y2="120.82"/>
			<line class="st10" x1="688.42" y1="92.46" x2="688.42" y2="120.82"/>
			<line class="st10" x1="641.56" y1="92.46" x2="641.56" y2="120.82"/>
			<line class="st10" x1="594.7" y1="92.46" x2="594.7" y2="120.82"/>
			<line class="st10" x1="547.84" y1="92.46" x2="547.84" y2="120.82"/>
			<line class="st10" x1="500.99" y1="92.46" x2="500.99" y2="120.82"/>
			<line class="st10" x1="454.13" y1="92.46" x2="454.13" y2="120.82"/>
			<line class="st10" x1="407.27" y1="92.46" x2="407.27" y2="120.82"/>
			<line class="st10" x1="360.41" y1="92.46" x2="360.41" y2="120.82"/>
			<line class="st10" x1="313.56" y1="92.46" x2="313.56" y2="120.82"/>
		</g>
		<g>
			<rect x="285.7" y="193.66" class="st10" width="611.37" height="28.36"/>
			<line class="st10" x1="845.04" y1="193.66" x2="845.04" y2="222.02"/>
			<line class="st10" x1="794.27" y1="193.66" x2="794.27" y2="222.02"/>
			<line class="st10" x1="743.51" y1="193.66" x2="743.51" y2="222.02"/>
			<line class="st10" x1="692.74" y1="193.66" x2="692.74" y2="222.02"/>
			<line class="st10" x1="641.97" y1="193.66" x2="641.97" y2="222.02"/>
			<line class="st10" x1="591.2" y1="193.66" x2="591.2" y2="222.02"/>
			<line class="st10" x1="540.43" y1="193.66" x2="540.43" y2="222.02"/>
			<line class="st10" x1="489.67" y1="193.66" x2="489.67" y2="222.02"/>
			<line class="st10" x1="438.9" y1="193.66" x2="438.9" y2="222.02"/>
			<line class="st10" x1="388.13" y1="193.66" x2="388.13" y2="222.02"/>
			<line class="st10" x1="337.36" y1="193.66" x2="337.36" y2="222.02"/>
		</g>
		<g>
			<polygon class="st10" points="736.61,120.82 830.15,120.82 830.15,92.46 			"/>
			<line class="st10" x1="793.88" y1="103.46" x2="793.88" y2="120.82"/>
			<line class="st10" x1="779.79" y1="107.73" x2="779.79" y2="120.82"/>
			<line class="st10" x1="768.2" y1="111.24" x2="768.2" y2="120.82"/>
			<line class="st10" x1="756.62" y1="114.76" x2="756.62" y2="120.82"/>
			<line class="st10" x1="811.41" y1="98.14" x2="811.41" y2="120.82"/>
		</g>
		<g>
			<polygon class="st10" points="768.2,199.95 897.06,222.02 897.06,193.66 768.2,182.71 			"/>
			<line class="st10" x1="871.99" y1="191.53" x2="871.99" y2="217.73"/>
			<line class="st10" x1="826.81" y1="187.69" x2="826.81" y2="209.99"/>
			<line class="st10" x1="774.35" y1="183.7" x2="774.35" y2="201.58"/>
			<line class="st10" x1="793.66" y1="184.96" x2="793.66" y2="204.31"/>
			<line class="st10" x1="807.23" y1="185.94" x2="807.23" y2="206.64"/>
			<line class="st10" x1="784.15" y1="183.99" x2="784.15" y2="202.37"/>
		</g>
		<g>
			<polygon class="st10" points="359.4,120.82 265.87,120.82 265.87,92.46 			"/>
			<line class="st10" x1="302.13" y1="103.46" x2="302.13" y2="120.82"/>
			<line class="st10" x1="316.22" y1="107.73" x2="316.22" y2="120.82"/>
			<line class="st10" x1="327.81" y1="111.24" x2="327.81" y2="120.82"/>
			<line class="st10" x1="339.4" y1="114.76" x2="339.4" y2="120.82"/>
			<line class="st10" x1="284.6" y1="98.14" x2="284.6" y2="120.82"/>
		</g>
		<polyline class="st10" points="306.45,309.7 199.56,371.48 584.76,371.48 912.43,371.48 912.43,346.28 878.29,323.52 
			915.68,324.33 830.15,281.08 		"/>
	</g>
</g>
</svg>
