<?xml version="1.0" encoding="utf-8"?>
<!-- Generator: Adobe Illustrator 30.2.1, SVG Export Plug-In . SVG Version: 9.03 Build 0)  -->
<svg version="1.0" xmlns="http://www.w3.org/2000/svg" xmlns:xlink="http://www.w3.org/1999/xlink" x="0px" y="0px"
	 viewBox="0 0 173.98 42" style="enable-background:new 0 0 173.98 42;" xml:space="preserve">
<style type="text/css">
	.st0{display:none;}
	.st1{display:inline;}
	.st2{fill:none;stroke:#000000;stroke-width:4;stroke-miterlimit:10;}
	.st3{fill:#FFFFFF;}
	.st4{fill:none;stroke:#000000;stroke-width:7;stroke-linecap:round;stroke-miterlimit:10;}
	.st5{fill:none;stroke:#000000;stroke-width:8;stroke-miterlimit:10;}
	.st6{display:inline;fill:#FFFFFF;}
	.st7{display:inline;fill:#A8905A;}
	.st8{display:inline;fill:#C4AB7A;}
	.st9{fill:#212529;}
	.st10{fill:#C4AB7A;}
	.st11{fill:#C4AB7A;stroke:#212529;stroke-width:2;stroke-miterlimit:10;}
	.st12{opacity:0.8;fill:#FF0000;}
	.st13{fill:none;}
	.st14{fill:#F5F5F5;}
	.st15{fill:#495057;}
</style>
<g id="Archiv" class="st0">
</g>
<g id="Layer_1">
	<g>
		<g>
			<g>
				<path class="st10" d="M30.86,34.38c-0.09,0-0.18-0.04-0.25-0.11c-0.13-0.14-0.13-0.36,0.01-0.49
					c6.16-5.88,7.24-15.33,2.57-22.47c-2.09-3.2-5.09-5.59-8.67-6.91c-3.51-1.29-7.26-1.45-10.84-0.46
					c-0.19,0.05-0.38-0.06-0.43-0.24c-0.05-0.19,0.06-0.38,0.24-0.43c3.73-1.03,7.62-0.86,11.27,0.48c3.72,1.37,6.83,3.85,9.01,7.18
					c4.86,7.42,3.73,17.24-2.67,23.36C31.03,34.35,30.94,34.38,30.86,34.38z"/>
			</g>
			<g>
				<path class="st10" d="M11.18,37.89c-0.05,0-0.09-0.01-0.14-0.03c-3.29-1.43-6.07-3.78-8.04-6.79C-2.06,23.34-0.58,13,6.43,7.02
					C6.58,6.89,6.8,6.91,6.92,7.06C7.05,7.2,7.03,7.42,6.89,7.55c-6.75,5.76-8.17,15.7-3.31,23.14c1.9,2.9,4.57,5.16,7.74,6.53
					c0.18,0.08,0.26,0.28,0.18,0.46C11.44,37.81,11.31,37.89,11.18,37.89z"/>
			</g>
			<g>
				<path class="st10" d="M26.56,37.43l1.58-0.71c1.1-0.49,2.09-1.8,1.36-1.71c-1.24,0.16-2.61,0.96-3.3,1.96
					c-0.02,0.03-0.1,0.03-0.12,0.02c-0.2-0.14-0.26-0.33-0.16-0.57c0.77-1.85,3.03-2.6,4.38-5.13c0.74-1.39,0.97-2.98,0.7-4.52
					c-0.02-0.09-0.12-0.17-0.18-0.17c-0.05,0-0.16,0.08-0.17,0.13c-0.39,1.64-1.26,2.66-2.34,3.88l-0.96,1.08
					c-1.02,1.14-1.95,2.89-2.04,4.46c-0.01,0.09-0.02,0.09-0.07,0.01c-0.45-0.54-0.99-0.95-1.39-1.53c-0.25-0.37-0.1-0.96,0.05-1.37
					c0.22-0.57,0.57-1.03,1-1.44l1.37-1.3c0.7-0.66,1.31-1.38,1.8-2.22c0.84-1.41,1.2-3.23,1.09-4.85c0-0.05-0.08-0.12-0.12-0.14
					c-0.04-0.02-0.17,0.03-0.19,0.07c-1.01,2.86-2.91,3.98-4.57,6.26c-0.85,1.16-1.48,2.65-1.27,4.18
					c-0.11-0.16-0.33-0.34-0.41-0.56c-0.19-0.55-0.12-1.13,0.03-1.67c0.68-2.37,2.4-3.78,3.49-6c0.79-1.6,1.05-3.39,0.85-5.16
					c-0.01-0.05-0.1-0.13-0.15-0.14c-0.04-0.01-0.15,0.05-0.16,0.09l-0.26,0.79c-0.28,0.85-0.76,1.59-1.28,2.31l-1.58,2.2
					c-1.33,1.93-2.36,4.08-1.91,6.51l-2.17-2.95c-0.17-0.69,0.68-1.64,1.13-2.12c0.62-0.66,1.23-1.29,1.79-2
					c0.93-1.18,1.52-2.5,1.8-3.98c0.23-1.21,0.25-2.42-0.03-3.61c-0.01-0.05-0.14-0.13-0.18-0.11c-0.04,0.02-0.11,0.08-0.12,0.12
					c-0.33,0.97-0.64,1.89-1.14,2.79c-0.61,1.08-1.29,2.06-2.02,3.05c-1.01,1.38-2.05,3.1-1.93,4.88l-1.93-3.04
					c-0.05-0.09,0.02-0.33,0.06-0.43c0.72-1.5,2.89-2.41,4.39-4.94c0.92-1.54,1.24-3.59,1.04-5.18c-0.01-0.1-0.12-0.18-0.16-0.18
					c-0.04,0-0.12,0.06-0.14,0.11c-0.18,0.51-0.36,1.03-0.61,1.52c-0.47,0.94-1.03,1.78-1.7,2.59l-1.6,1.95
					c-0.88,1.07-1.76,2.42-1.76,3.85l-0.96-1.69c-0.11-0.19-0.03-0.53,0.04-0.74c0.37-1.13,1.24-2.09,2-2.98
					c1.21-1.43,2.3-3.17,2.57-5.07c0.01-0.05-0.09-0.19-0.14-0.18c-0.04,0.01-0.11,0.07-0.14,0.11c-0.45,0.69-1,1.25-1.59,1.82
					c-1.43,1.37-2.79,2.75-3.25,4.74c-0.1,0.41-0.08,0.81-0.1,1.22c-0.21-0.39-0.4-0.75-0.58-1.15c-0.43-0.95-0.83-1.15-0.08-2.05
					c0.39-0.47,0.8-0.83,1.25-1.25c1.45-1.36,2.38-3.17,2.51-5.17c0-0.06-0.04-0.18-0.07-0.22c-0.03-0.04-0.18-0.03-0.21,0.03
					c-0.33,0.65-0.8,1.34-1.32,1.9c-1.19,1.28-2.88,2.99-3.02,4.75c-0.29-0.76-0.44-1.15-0.12-2c0.18-0.47,0.41-0.9,0.66-1.34
					l0.94-1.69c0.45-0.81,1.14-2.8,1.09-3.67c0-0.04-0.08-0.12-0.11-0.13c-0.04-0.01-0.13,0.05-0.15,0.09
					c-0.66,1.42-1.62,2.11-2.4,3.64c-0.43,0.85-0.7,1.7-0.76,2.68c0.02,0.04-0.01-0.02-0.03-0.06l-0.54-1.96
					c-0.09-0.35-0.03-0.71,0.17-1.01c0.28-0.43,0.59-0.8,0.91-1.21c1.04-1.31,1.71-2.84,1.91-4.51c0.01-0.07-0.04-0.18-0.08-0.2
					c-0.04-0.02-0.17,0.02-0.19,0.06c-0.4,0.65-0.84,1.24-1.33,1.82c-0.9,1.07-1.43,1.9-1.76,3.26l-0.25-1.3
					c-0.33-1.73,1.05-2.47,1.55-4.85c0.01-0.05-0.05-0.18-0.1-0.18c-0.24,0.01-0.82,0.7-0.99,0.92c-0.42,0.5-0.69,1.04-0.82,1.67
					c-0.15-1.29-0.21-1.49,0.45-2.56c0.74-1.19,1.24-2.46,1.36-3.87c0.01-0.09-0.07-0.22-0.14-0.23c-0.05-0.01-0.14,0.07-0.18,0.12
					l-0.93,1.38c-0.5,0.74-0.84,1.52-0.98,2.38c-0.09-0.42-0.06-0.83,0.01-1.25c0.18-1.07,0.23-2.12,0.03-3.19l-0.23-1.25
					C10.25,0.1,10.16-0.01,10.1,0c-0.05,0.01-0.14,0.08-0.17,0.13c-0.5,1-0.7,2.13-0.54,3.25c0.09,0.66,0.33,1.26,0.57,1.87
					c0.12,0.31,0.16,0.63,0.18,1.03C9.58,5.05,8.7,4.72,7.89,3.47C7.85,3.42,7.7,3.44,7.69,3.49C7.52,4.1,8.16,5.31,8.58,5.86
					c0.31,0.4,0.65,0.72,1.01,1.07c0.72,0.7,0.76,0.92,0.89,1.96C9.83,7.58,9.1,7.04,7.81,6.4C7.78,6.38,7.66,6.44,7.66,6.48
					c0,0.03-0.01,0.12,0.02,0.18c0.5,0.95,1.29,1.91,2.13,2.61c0.66,0.56,0.92,1.1,0.99,1.93c-0.55-0.67-1.27-1.17-2.1-1.45
					L7.39,9.31c-0.31-0.1-0.67-0.28-0.95-0.42C6.4,8.88,6.31,8.9,6.29,8.92C6.27,8.95,6.25,9.06,6.28,9.09
					c0.67,1.04,1.79,1.85,2.99,2.17c0.41,0.11,1.58,0.45,1.66,0.86l0.25,1.22c-0.02,0.04-0.03,0.05-0.06,0.02
					c-0.48-0.63-1.1-1.04-1.85-1.27c-0.55-0.18-1.11-0.29-1.69-0.33l-1.1-0.07c-0.74-0.05,0.89,1.21,1.73,1.52L10,13.87
					c0.68,0.25,1.35,0.45,1.54,1.17l0.29,1.1c-0.61-0.86-1.51-1.4-2.55-1.61c-0.77-0.15-1.51-0.25-2.3-0.36
					c-0.05-0.01-0.18,0.05-0.19,0.1c-0.11,0.37,1.99,1.61,2.5,1.83l1.68,0.71c0.56,0.24,1.26,0.55,1.47,1.15l0.3,0.89
					c-0.67-0.55-1.44-0.94-2.29-1.12l-1.42-0.3c-0.67-0.14-1.3-0.38-1.88-0.73c-0.07-0.04-0.17-0.07-0.22-0.04
					c-0.05,0.03-0.07,0.21-0.04,0.26c0.75,0.99,1.72,1.76,2.9,2.17c0.94,0.33,1.97,0.33,2.92,0.64c0.16,0.05,0.49,0.17,0.57,0.33
					l0.89,1.79c-0.91-0.61-1.61-0.74-2.67-0.88c-1.32-0.18-2.67-0.36-3.84-1c-0.06-0.03-0.18-0.03-0.22,0.02
					c-0.04,0.04-0.03,0.2,0.01,0.25c0.82,1.05,1.96,1.77,3.25,2.11c1.56,0.41,2.7,0.27,3.84,0.59c0.17,0.05,0.33,0.16,0.41,0.31
					l0.72,1.3c-2.4-1.44-4.41-0.22-7.12-1.53c-0.06-0.03-0.19-0.01-0.22,0.04c-0.03,0.04-0.03,0.19,0,0.23
					c1.55,1.78,3.65,2.45,5.98,2.24c0.66-0.06,1.54-0.16,2.08,0.21l1.56,2.48c-1.45-0.88-2.47-1.11-4.2-0.87l-2.11,0.3
					c-1.39,0.2-2.42-0.43-2.6-0.27c-0.25,0.23,0.78,0.89,0.98,1.01c1.54,0.93,3.18,1.02,4.93,0.77l1.45-0.21
					c0.83-0.12,1.67,0.04,2.39,0.46l0.79,1.14c-0.82-0.39-1.64-0.54-2.54-0.47c-2.58,0.2-4.18,1.48-6.68,1.05
					c-0.05-0.01-0.18,0.02-0.21,0.06c-0.16,0.15,0.29,0.47,0.42,0.55c2.01,1.22,4.28,0.96,6.39,0.16c0.95-0.36,2.4-0.94,3.33-0.38
					c0.35,0.27,0.52,0.73,0.86,1.06c-0.68-0.26-1.39-0.42-2.15-0.32c-3.02,0.41-4.27,2.47-7.11,2.26c-0.06,0-0.18,0.1-0.18,0.16
					c0,0.05,0.06,0.16,0.11,0.19c0.88,0.51,1.86,0.75,2.88,0.71c1.06-0.04,2.05-0.28,3-0.73l1.76-0.82c0.48-0.22,0.94-0.4,1.48-0.46
					c0.34-0.04,0.86-0.06,1.13,0.19c0.45,0.44,0.83,0.93,1.25,1.4c-0.66-0.22-1.23-0.34-1.89-0.28c-3.49,0.32-5.28,3.22-8.49,3.17
					c-0.08,0-0.19,0.12-0.19,0.18c0.01,0.05,0.07,0.17,0.13,0.2c2.26,1.07,4.54,0.48,6.6-0.73c0.71-0.42,1.39-0.83,2.13-1.19
					c0.82-0.4,1.97-0.65,2.79-0.19c0.14,0.08,0.26,0.23,0.36,0.35c-1.56-0.13-2.79,0.56-3.94,1.51l-1.27,1.04
					c-0.47,0.39-0.97,0.68-1.54,0.9c-0.09,0.03-0.17,0.15-0.15,0.22c0.02,0.06,0.12,0.17,0.19,0.17c2.28,0.23,4.23-0.92,5.93-2.3
					c0.42-0.34,0.82-0.64,1.32-0.87c0.1-0.05,0.27,0.1,0.31,0.18c-1.28,0.95-1.95,2.94-1.29,4.35c0.02,0.05,0.11,0.11,0.15,0.12
					c0.04,0.01,0.16-0.03,0.18-0.07c0.66-1.1,0.88-1.89,1.18-3.15c0.02-0.09,0.19-0.86,0.33-0.72c0.93,0.91,2,1.83,3.04,2.64
					c0.18,0.14,1.59,1.23,1.7,0.83c0.02-0.06,0-0.22-0.05-0.27C29.62,39.89,27.93,38.77,26.56,37.43z"/>
			</g>
		</g>
		<g>
			<g>
				<g>
					<path class="st10" d="M50.15,31.9c0.76,0,1.42,0.27,1.96,0.81c0.54,0.54,0.81,1.21,0.81,1.99c0,0.79-0.27,1.45-0.81,1.99
						c-0.54,0.54-1.19,0.81-1.96,0.81c-0.95,0-1.67-0.39-2.16-1.18v1.05h-0.71v-7.5h0.71v3.19C48.47,32.29,49.2,31.9,50.15,31.9z
						 M48.59,36.21c0.41,0.41,0.91,0.62,1.5,0.62c0.59,0,1.09-0.21,1.5-0.62s0.61-0.91,0.61-1.51c0-0.59-0.2-1.09-0.61-1.51
						s-0.91-0.62-1.5-0.62c-0.59,0-1.09,0.21-1.5,0.62c-0.41,0.41-0.61,0.91-0.61,1.51C47.98,35.3,48.18,35.8,48.59,36.21z"/>
					<path class="st10" d="M62.14,36.71c-0.55,0.54-1.21,0.81-2,0.81c-0.79,0-1.45-0.27-2-0.81c-0.55-0.54-0.82-1.21-0.82-2
						c0-0.79,0.27-1.46,0.82-2c0.55-0.54,1.21-0.81,2-0.81c0.79,0,1.45,0.27,2,0.81c0.55,0.54,0.82,1.21,0.82,2
						C62.96,35.5,62.69,36.17,62.14,36.71z M58.64,36.21c0.41,0.41,0.91,0.62,1.5,0.62c0.59,0,1.09-0.21,1.5-0.62
						s0.61-0.91,0.61-1.51c0-0.59-0.2-1.09-0.61-1.51s-0.91-0.62-1.5-0.62c-0.59,0-1.09,0.21-1.5,0.62s-0.61,0.91-0.61,1.51
						C58.03,35.3,58.24,35.8,58.64,36.21z"/>
					<path class="st10" d="M71.49,32.03h0.71v5.36h-0.71v-0.84c-0.4,0.64-1,0.96-1.8,0.96c-0.65,0-1.16-0.2-1.54-0.59
						c-0.37-0.4-0.56-0.93-0.56-1.6v-3.29h0.71v3.29c0,0.48,0.13,0.85,0.38,1.11c0.25,0.26,0.61,0.4,1.08,0.4
						c0.51,0,0.93-0.16,1.25-0.49c0.32-0.32,0.48-0.83,0.48-1.51V32.03z"/>
					<path class="st10" d="M80.04,32.72H78.5v3.25c0,0.29,0.06,0.5,0.17,0.63c0.11,0.12,0.29,0.19,0.51,0.19
						c0.23,0,0.51,0,0.86-0.02v0.62c-0.75,0.11-1.31,0.06-1.69-0.16c-0.37-0.22-0.56-0.64-0.56-1.26v-3.25h-1.13v-0.69h1.13v-1.29
						l0.71-0.21v1.5h1.54V32.72z"/>
					<path class="st10" d="M85.31,30.74c-0.1,0.1-0.22,0.15-0.36,0.15c-0.14,0-0.26-0.05-0.36-0.15c-0.1-0.1-0.15-0.22-0.15-0.36
						c0-0.14,0.05-0.26,0.15-0.36c0.1-0.1,0.22-0.15,0.36-0.15c0.14,0,0.26,0.05,0.36,0.15c0.1,0.1,0.15,0.22,0.15,0.36
						C85.46,30.52,85.41,30.64,85.31,30.74z M84.59,37.39v-5.36h0.71v5.36H84.59z"/>
					<path class="st10" d="M94.93,32.03h0.71v7.5h-0.71v-3.19c-0.49,0.79-1.21,1.18-2.16,1.18c-0.76,0-1.42-0.27-1.96-0.81
						C90.27,36.16,90,35.49,90,34.71c0-0.79,0.27-1.45,0.81-1.99c0.54-0.54,1.19-0.81,1.96-0.81c0.95,0,1.67,0.39,2.16,1.18V32.03z
						 M91.32,36.21c0.41,0.41,0.91,0.62,1.5,0.62c0.59,0,1.09-0.21,1.5-0.62c0.41-0.41,0.61-0.91,0.61-1.51
						c0-0.59-0.2-1.09-0.61-1.51c-0.41-0.41-0.91-0.62-1.5-0.62c-0.59,0-1.09,0.21-1.5,0.62c-0.41,0.41-0.61,0.91-0.61,1.51
						C90.71,35.3,90.91,35.8,91.32,36.21z"/>
					<path class="st10" d="M104.51,32.03h0.71v5.36h-0.71v-0.84c-0.4,0.64-1,0.96-1.8,0.96c-0.65,0-1.16-0.2-1.54-0.59
						c-0.37-0.4-0.56-0.93-0.56-1.6v-3.29h0.71v3.29c0,0.48,0.13,0.85,0.38,1.11c0.25,0.26,0.61,0.4,1.08,0.4
						c0.51,0,0.93-0.16,1.25-0.49c0.32-0.32,0.48-0.83,0.48-1.51V32.03z"/>
					<path class="st10" d="M112.77,31.9c0.79,0,1.43,0.28,1.92,0.84c0.49,0.56,0.73,1.22,0.73,1.99c0,0.08-0.01,0.19-0.02,0.33h-4.7
						c0.07,0.54,0.3,0.97,0.69,1.29c0.39,0.32,0.87,0.48,1.44,0.48c0.41,0,0.76-0.08,1.06-0.25c0.3-0.17,0.52-0.39,0.67-0.66
						l0.62,0.36c-0.24,0.38-0.56,0.68-0.96,0.9c-0.41,0.22-0.87,0.33-1.39,0.33c-0.84,0-1.53-0.26-2.06-0.79
						c-0.53-0.53-0.79-1.2-0.79-2.01c0-0.8,0.26-1.47,0.78-2C111.27,32.17,111.94,31.9,112.77,31.9z M112.77,32.59
						c-0.56,0-1.02,0.17-1.4,0.5c-0.38,0.33-0.6,0.76-0.67,1.29h4c-0.07-0.56-0.29-1-0.65-1.32
						C113.68,32.74,113.25,32.59,112.77,32.59z"/>
					<path class="st10" d="M127.43,32.92c0.33-0.65,0.89-0.98,1.69-0.98v0.69c-0.49,0-0.89,0.14-1.21,0.43
						c-0.32,0.29-0.48,0.74-0.48,1.35v2.98h-0.71v-5.36h0.71V32.92z"/>
					<path class="st10" d="M135.85,31.9c0.79,0,1.43,0.28,1.92,0.84c0.49,0.56,0.73,1.22,0.73,1.99c0,0.08-0.01,0.19-0.02,0.33h-4.7
						c0.07,0.54,0.3,0.97,0.69,1.29c0.39,0.32,0.87,0.48,1.44,0.48c0.41,0,0.76-0.08,1.06-0.25c0.3-0.17,0.52-0.39,0.67-0.66
						l0.62,0.36c-0.24,0.38-0.56,0.68-0.96,0.9c-0.41,0.22-0.87,0.33-1.39,0.33c-0.84,0-1.53-0.26-2.06-0.79
						c-0.53-0.53-0.79-1.2-0.79-2.01c0-0.8,0.26-1.47,0.78-2C134.36,32.17,135.03,31.9,135.85,31.9z M135.85,32.59
						c-0.56,0-1.02,0.17-1.4,0.5c-0.38,0.33-0.6,0.76-0.67,1.29h4c-0.07-0.56-0.29-1-0.65-1.32
						C136.76,32.74,136.33,32.59,135.85,32.59z"/>
					<path class="st10" d="M143.68,33.42c0,0.24,0.11,0.43,0.33,0.57c0.22,0.14,0.48,0.25,0.79,0.34c0.31,0.09,0.61,0.18,0.92,0.26
						c0.31,0.09,0.57,0.25,0.78,0.48c0.21,0.23,0.32,0.53,0.32,0.9c0,0.46-0.18,0.83-0.54,1.11c-0.36,0.29-0.83,0.43-1.4,0.43
						c-0.51,0-0.95-0.11-1.31-0.34c-0.36-0.23-0.61-0.53-0.76-0.89l0.6-0.35c0.1,0.28,0.28,0.5,0.54,0.66
						c0.26,0.16,0.57,0.24,0.93,0.24c0.35,0,0.64-0.07,0.88-0.21c0.24-0.14,0.35-0.36,0.35-0.65c0-0.24-0.11-0.44-0.32-0.58
						c-0.21-0.14-0.48-0.26-0.78-0.35c-0.31-0.09-0.61-0.18-0.92-0.26c-0.31-0.09-0.57-0.24-0.78-0.47s-0.32-0.52-0.32-0.88
						c0-0.44,0.17-0.8,0.52-1.09c0.35-0.29,0.78-0.44,1.31-0.44c0.44,0,0.82,0.1,1.15,0.29c0.33,0.2,0.57,0.46,0.73,0.8l-0.59,0.34
						c-0.21-0.5-0.64-0.75-1.29-0.75c-0.31,0-0.57,0.07-0.79,0.22C143.79,32.95,143.68,33.15,143.68,33.42z"/>
					<path class="st10" d="M155.98,36.71c-0.55,0.54-1.21,0.81-2,0.81c-0.79,0-1.45-0.27-2-0.81c-0.55-0.54-0.82-1.21-0.82-2
						c0-0.79,0.27-1.46,0.82-2c0.55-0.54,1.21-0.81,2-0.81c0.79,0,1.45,0.27,2,0.81c0.55,0.54,0.82,1.21,0.82,2
						C156.8,35.5,156.52,36.17,155.98,36.71z M152.48,36.21c0.41,0.41,0.91,0.62,1.5,0.62c0.59,0,1.09-0.21,1.5-0.62
						s0.61-0.91,0.61-1.51c0-0.59-0.2-1.09-0.61-1.51s-0.91-0.62-1.5-0.62c-0.59,0-1.09,0.21-1.5,0.62
						c-0.41,0.41-0.61,0.91-0.61,1.51C151.87,35.3,152.07,35.8,152.48,36.21z"/>
					<path class="st10" d="M162.23,32.92c0.33-0.65,0.89-0.98,1.69-0.98v0.69c-0.49,0-0.89,0.14-1.21,0.43
						c-0.32,0.29-0.48,0.74-0.48,1.35v2.98h-0.71v-5.36h0.71V32.92z"/>
					<path class="st10" d="M171.52,32.72h-1.54v3.25c0,0.29,0.06,0.5,0.17,0.63c0.11,0.12,0.29,0.19,0.51,0.19
						c0.23,0,0.51,0,0.86-0.02v0.62c-0.75,0.11-1.31,0.06-1.69-0.16c-0.38-0.22-0.56-0.64-0.56-1.26v-3.25h-1.13v-0.69h1.13v-1.29
						l0.71-0.21v1.5h1.54V32.72z"/>
				</g>
			</g>
			<g>
				<g>
					<path class="st14" d="M56.58,7.28C55.65,6.5,54.31,6.1,52.56,6.1h-4.57v0h-0.72v16.58h0.72h0.51h0.77v-7.75h3.17
						c1.81,0,3.19-0.4,4.12-1.2c0.94-0.8,1.41-1.88,1.41-3.25C57.97,9.13,57.51,8.06,56.58,7.28z M55.65,13.04
						c-0.74,0.6-1.81,0.9-3.23,0.9h-3.15V7.1h3.31c1.34,0,2.37,0.31,3.09,0.92c0.72,0.61,1.08,1.44,1.08,2.49
						C56.75,11.6,56.39,12.44,55.65,13.04z"/>
					<polygon class="st14" points="68.69,5.99 61.03,22.69 62.37,22.69 65.47,15.88 65.47,15.88 68.71,8.8 71.95,15.88 72.44,16.95 
						75.03,22.62 75.06,22.69 75.72,22.69 76.41,22.69 77.07,22.69 69.4,5.99 					"/>
					<polygon class="st14" points="83.46,6.11 82.74,6.11 82.74,22.69 83.46,22.69 83.96,22.69 84.74,22.69 84.74,14.54 
						91.28,14.54 91.28,13.48 84.74,13.48 84.74,7.17 91.99,7.17 91.99,6.1 83.46,6.1 					"/>
					<path class="st14" d="M105.51,14.42c2.1-0.78,3.16-2.12,3.16-4.04c0-1.31-0.47-2.36-1.41-3.13c-0.94-0.77-2.3-1.16-4.08-1.16
						h-4.25v0h-0.71v16.58h0.71h0.51h0.77v-7.95h2.24c1.04,0,1.82,0.19,2.36,0.56c0.54,0.38,1.29,1.32,2.25,2.84l2.89,4.54h1.52
						l-3.75-5.73C106.79,15.53,106.05,14.69,105.51,14.42z M102.96,13.67h-2.75V7.17h2.71c1.41,0,2.49,0.28,3.24,0.85
						c0.75,0.57,1.13,1.37,1.13,2.39c0,1.04-0.37,1.84-1.11,2.4C105.43,13.38,104.36,13.67,102.96,13.67z"/>
					<polygon class="st14" points="123.52,5.99 115.86,22.69 117.2,22.69 117.22,22.64 119.82,16.95 119.82,16.95 120.3,15.88 
						120.3,15.88 123.53,8.8 123.54,8.8 126.78,15.88 127.27,16.95 129.79,22.47 129.89,22.69 130.55,22.69 131.23,22.69 
						131.89,22.69 124.23,5.99 					"/>
					<polygon class="st14" points="72.21,3.51 71.13,2.47 66.85,3.58 67.14,3.88 					"/>
					<polygon class="st14" points="127.04,3.51 125.95,2.47 121.68,3.58 121.97,3.88 					"/>
				</g>
				<polygon class="st14" points="152.18,6.1 152.18,20.6 139.8,6.33 139.8,6.33 139.8,6.33 139.6,6.1 139.6,6.1 138.52,6.1 
					137.8,6.1 137.8,22.69 138.52,22.69 139.8,22.69 139.8,22.69 139.8,8.19 152.41,22.69 153.46,22.69 153.46,6.1 				"/>
				<polygon class="st14" points="172.42,6.1 166.9,12.67 161.36,6.1 161.04,6.1 159.81,6.1 159.24,6.1 165.54,13.78 165.54,22.69 
					166.25,22.69 167.54,22.69 167.54,22.69 167.54,13.78 173.98,6.1 				"/>
			</g>
		</g>
	</g>
</g>
</svg>
